<svg xmlns="http://www.w3.org/2000/svg" xmlns:xlink="http://www.w3.org/1999/xlink" version="1.1" x="0px" y="0px" viewBox="0 0 100 125" enable-background="new 0 0 100 100" xml:space="preserve"><path fill-rule="evenodd" clip-rule="evenodd" d="M73.998,54.504c-9.941,0-18.002-8.06-18.002-18.002  c0-9.943,8.061-18.003,18.002-18.003c9.943,0,18.004,8.06,18.004,18.003C92.002,46.444,83.941,54.504,73.998,54.504z M81.412,30.644  l-2.238-2.239l-5.525,5.524l-5.184-5.259l-2.193,2.224l5.17,5.244l-5.703,5.703l2.238,2.239l5.688-5.687l5.871,5.953l2.191-2.224  l-5.854-5.938L81.412,30.644z M61,52.988v28.514H49.99V27.501h5.045c-1.299,2.731-2.047,5.775-2.047,9  C52.988,43.192,56.125,49.14,61,52.988z M39.011,27.501h5.982v54.001h-5.982V27.501z M32.99,27.501h2.014v54.001H32.99V27.501z   M25.002,27.501h5.982v54.001h-5.982V27.501z M7.999,27.501h12.992v54.001H7.999V27.501z M69.008,81.502h-6.012V54.377  c1.838,1.133,3.857,1.988,6.012,2.514V81.502z M77.004,81.502H74.99V57.463c0.68-0.033,1.352-0.096,2.014-0.189V81.502z   M85.998,81.502h-6.012V56.635c2.174-0.646,4.195-1.633,6.012-2.9V81.502z"/></svg>