<svg id="eqNekj9YHTQ1" xmlns="http://www.w3.org/2000/svg" xmlns:xlink="http://www.w3.org/1999/xlink" viewBox="0 0 206.108 206.108" shape-rendering="geometricPrecision" text-rendering="geometricPrecision"><path id="eqNekj9YHTQ2" d="M152.774,69.886L30.728,69.886L55.698,44.916C59.213,41.401,59.213,35.703,55.698,32.188C52.182,28.672,46.485,28.673,42.969,32.188L2.636,72.523C-0.879,76.038,-0.879,81.736,2.636,85.251L42.969,125.584C44.727,127.342,47.03,128.22,49.333,128.22C51.636,128.22,53.939,127.341,55.697,125.584C59.212,122.069,59.212,116.371,55.697,112.856L30.727,87.886L152.773,87.886C172.256,87.886,188.107,103.737,188.107,123.22C188.107,142.703,172.256,158.554,152.773,158.554L78.531,158.554C73.56,158.554,69.531,162.583,69.531,167.554C69.531,172.525,73.56,176.554,78.531,176.554L152.773,176.554C182.181,176.554,206.107,152.628,206.107,123.22C206.107,93.812,182.182,69.886,152.774,69.886Z" transform="matrix(1 0 0 1 0.001 0)" fill="rgb(255,255,255)" stroke="none" stroke-width="1"/></svg>